<?xml version="1.0" encoding="UTF-8" standalone="no"?>
<!-- Created with Inkscape (http://www.inkscape.org/) -->

<svg
   version="1.1"
   id="svg2"
   width="939.71094"
   height="251.2"
   viewBox="0 0 939.71093 251.2"
   sodipodi:docname="IT.UV-Logo.png"
   inkscape:export-filename="IT.UV-Logo.svg"
   inkscape:export-xdpi="96"
   inkscape:export-ydpi="96"
   xmlns:inkscape="http://www.inkscape.org/namespaces/inkscape"
   xmlns:sodipodi="http://sodipodi.sourceforge.net/DTD/sodipodi-0.dtd"
   xmlns="http://www.w3.org/2000/svg"
   xmlns:svg="http://www.w3.org/2000/svg">
  <defs
     id="defs6" />
  <sodipodi:namedview
     id="namedview4"
     pagecolor="#ffffff"
     bordercolor="#000000"
     borderopacity="0.25"
     inkscape:showpageshadow="2"
     inkscape:pageopacity="0.0"
     inkscape:pagecheckerboard="0"
     inkscape:deskcolor="#d1d1d1"
     showgrid="false" />
  <g
     inkscape:groupmode="layer"
     inkscape:label="Image"
     id="g8">
    <path
       style="fill:#00509b;fill-opacity:1;stroke-width:5.43874"
       d="M 0,251.2 62.742081,0 H 104.4811 L 41.690462,251.2 Z"
       id="path950" />
    <path
       style="fill:#00509b;fill-opacity:1;stroke-width:5.43874"
       d="m 146.28272,0 h 41.61986 L 125.20312,251.2 H 83.648437 Z"
       id="path3083"
       inkscape:export-filename="path3083.svg"
       inkscape:export-xdpi="96"
       inkscape:export-ydpi="96" />
    <path
       style="fill:#00509b;fill-opacity:1;stroke-width:5.43874"
       d="m 292.58753,21.279495 h 41.36574 V 229.91466 h -41.3105 z"
       id="path3137" />
    <path
       style="fill:#00509b;fill-opacity:1;stroke-width:5.43874"
       d="m 355.69681,21.268446 v 41.277358 h 61.80555 V 229.8097 h 42.42641 V 62.490562 h 62.04862 V 21.345786 Z"
       id="path3139" />
    <path
       style="fill:#00509b;fill-opacity:1;stroke-width:5.43874"
       d="M 542.8125,188.6875 V 230 h -40.875 v -41.3125 z"
       id="path3141" />
    <path
       style="fill:#00509b;fill-opacity:1;stroke-width:5.43874"
       d="m 564.27121,20.948038 h 41.45413 V 169.625 l 0.36841,2.1875 0.84375,2.70312 1.96875,3.78125 2.79687,3.48438 3.04688,2.75 4.39062,2.57812 4.83692,1.42298 h 25.58843 21.56675 l 2.93892,-0.55243 3.35875,-1.14905 3.49134,-2.18761 4.68458,-4.24264 1.63519,-2.67375 2.01083,-4.39732 0.8176,-3.49134 0.11048,-0.92808 V 21.213203 h 40.52606 V 170.75 l -0.3471,2.32812 -0.21875,2.23438 -1.51562,6.76562 -0.78125,3.3125 -0.92693,2.45672 -1.09381,2.70689 -1.16009,2.33124 -1.23744,2.22076 -1.48051,2.72899 -1.16009,2.01083 -1.39212,2.12132 -1.35897,1.80092 -1.39212,1.74567 -1.83405,1.99978 -1.138,1.43631 -2.03294,2.34229 -3.09359,2.76214 -3.13779,2.40858 -2.51906,2.03294 -2.38649,1.72357 -3.15988,1.92244 -3.09359,1.5468 -3.33666,1.61309 -3.42505,1.21534 -4.06587,1.41421 -4.5078,1.12695 -3.97748,0.61872 -3.0273,0.28726 h -50.22668 l -3.11569,-0.57452 -4.64039,-0.7734 -3.91118,-0.95017 -3.8228,-1.41422 -4.75087,-2.03293 -4.19845,-2.03293 -4.5299,-2.89472 -3.62392,-2.43068 -3.7786,-3.40295 -2.05503,-1.76777 -3.09359,-3.42505 -3.15989,-3.88908 -3.33666,-4.90556 -2.34229,-4.33103 -2.76213,-6.23137 -1.37002,-4.19845 -1.39212,-5.36959 -0.7955,-4.41942 -0.59662,-5.61266 z"
       id="path3143" />
    <path
       style="fill:#00509b;fill-opacity:1;stroke-width:5.43874"
       d="m 773.32812,21.3125 51.78907,208.29297 h 62.60156 L 939.71094,21.304687 H 898.59375 L 856.51172,188.64062 814.55387,21.301592 Z"
       id="path3145" />
  </g>
</svg>
